<svg width="281" height="236" viewBox="0 0 281 236" fill="none" xmlns="http://www.w3.org/2000/svg">
<path d="M264.735 0.858398H16.3475C12.1568 0.86303 8.13902 2.52984 5.17573 5.49312C2.21245 8.4564 0.545648 12.4741 0.541016 16.6649V192.794C0.545648 196.985 2.21245 201.002 5.17573 203.966C8.13902 206.929 12.1568 208.596 16.3475 208.6H103.599L100.585 226.665H68.283C67.0852 226.665 65.9365 227.141 65.0896 227.988C64.2426 228.835 63.7668 229.983 63.7668 231.181C63.7668 232.379 64.2426 233.527 65.0896 234.374C65.9365 235.221 67.0852 235.697 68.283 235.697H212.799C213.997 235.697 215.146 235.221 215.992 234.374C216.839 233.527 217.315 232.379 217.315 231.181C217.315 229.983 216.839 228.835 215.992 227.988C215.146 227.141 213.997 226.665 212.799 226.665H180.497L177.483 208.6H264.735C268.925 208.596 272.943 206.929 275.906 203.966C278.87 201.002 280.536 196.985 280.541 192.794V16.6649C280.536 12.4741 278.87 8.4564 275.906 5.49312C272.943 2.52984 268.925 0.86303 264.735 0.858398ZM109.741 226.665L112.756 208.6H168.326L171.341 226.665H109.741ZM271.509 192.794C271.507 194.59 270.793 196.312 269.523 197.582C268.253 198.852 266.531 199.567 264.735 199.568H16.3475C14.5513 199.567 12.8291 198.852 11.559 197.582C10.289 196.312 9.57477 194.59 9.57327 192.794V181.504H271.509V192.794ZM271.509 172.471H9.57327V16.6649C9.57477 14.8687 10.289 13.1465 11.559 11.8764C12.8291 10.6063 14.5513 9.89215 16.3475 9.89066H264.735C266.531 9.89215 268.253 10.6063 269.523 11.8764C270.793 13.1465 271.507 14.8687 271.509 16.6649V172.471Z" fill="#0A3A68"/>
<path d="M50.2184 186.02H18.6055C17.4077 186.02 16.259 186.495 15.4121 187.342C14.5652 188.189 14.0894 189.338 14.0894 190.536C14.0894 191.733 14.5652 192.882 15.4121 193.729C16.259 194.576 17.4077 195.052 18.6055 195.052H50.2184C51.4161 195.052 52.5648 194.576 53.4118 193.729C54.2587 192.882 54.7345 191.733 54.7345 190.536C54.7345 189.338 54.2587 188.189 53.4118 187.342C52.5648 186.495 51.4161 186.02 50.2184 186.02Z" fill="#0A3A68"/>
<path d="M68.283 186.02H63.7669C62.5691 186.02 61.4204 186.495 60.5735 187.342C59.7265 188.189 59.2507 189.338 59.2507 190.536C59.2507 191.733 59.7265 192.882 60.5735 193.729C61.4204 194.576 62.5691 195.052 63.7669 195.052H68.283C69.4807 195.052 70.6294 194.576 71.4764 193.729C72.3233 192.882 72.7991 191.733 72.7991 190.536C72.7991 189.338 72.3233 188.189 71.4764 187.342C70.6294 186.495 69.4807 186.02 68.283 186.02Z" fill="#0A3A68"/>
</svg>
