<svg width="281" height="236" viewBox="0 0 281 236" fill="none" xmlns="http://www.w3.org/2000/svg">
<path d="M264.735 0.85791H16.3475C12.1568 0.862542 8.13902 2.52935 5.17573 5.49263C2.21245 8.45591 0.545648 12.4737 0.541016 16.6644V192.793C0.545648 196.984 2.21245 201.002 5.17573 203.965C8.13902 206.928 12.1568 208.595 16.3475 208.6H103.599L100.585 226.664H68.283C67.0852 226.664 65.9365 227.14 65.0896 227.987C64.2426 228.834 63.7668 229.983 63.7668 231.18C63.7668 232.378 64.2426 233.527 65.0896 234.374C65.9365 235.221 67.0852 235.697 68.283 235.697H212.799C213.997 235.697 215.146 235.221 215.992 234.374C216.839 233.527 217.315 232.378 217.315 231.18C217.315 229.983 216.839 228.834 215.992 227.987C215.146 227.14 213.997 226.664 212.799 226.664H180.497L177.483 208.6H264.735C268.925 208.595 272.943 206.928 275.906 203.965C278.87 201.002 280.536 196.984 280.541 192.793V16.6644C280.536 12.4737 278.87 8.45591 275.906 5.49263C272.943 2.52935 268.925 0.862542 264.735 0.85791ZM109.741 226.664L112.756 208.6H168.326L171.341 226.664H109.741ZM271.509 192.793C271.507 194.59 270.793 196.312 269.523 197.582C268.253 198.852 266.531 199.566 264.735 199.568H16.3475C14.5513 199.566 12.8291 198.852 11.559 197.582C10.289 196.312 9.57477 194.59 9.57327 192.793V181.503H271.509V192.793ZM271.509 172.471H9.57327V16.6644C9.57477 14.8682 10.289 13.146 11.559 11.8759C12.8291 10.6059 14.5513 9.89166 16.3475 9.89017H264.735C266.531 9.89166 268.253 10.6059 269.523 11.8759C270.793 13.146 271.507 14.8682 271.509 16.6644V172.471Z" fill="#0A3A68"/>
<path d="M50.2184 186.019H18.6055C17.4077 186.019 16.259 186.495 15.4121 187.342C14.5652 188.189 14.0894 189.337 14.0894 190.535C14.0894 191.733 14.5652 192.882 15.4121 193.729C16.259 194.575 17.4077 195.051 18.6055 195.051H50.2184C51.4161 195.051 52.5648 194.575 53.4118 193.729C54.2587 192.882 54.7345 191.733 54.7345 190.535C54.7345 189.337 54.2587 188.189 53.4118 187.342C52.5648 186.495 51.4161 186.019 50.2184 186.019Z" fill="#0A3A68"/>
<path d="M68.283 186.019H63.7669C62.5691 186.019 61.4204 186.495 60.5735 187.342C59.7265 188.189 59.2507 189.337 59.2507 190.535C59.2507 191.733 59.7265 192.882 60.5735 193.729C61.4204 194.575 62.5691 195.051 63.7669 195.051H68.283C69.4807 195.051 70.6294 194.575 71.4764 193.729C72.3233 192.882 72.7991 191.733 72.7991 190.535C72.7991 189.337 72.3233 188.189 71.4764 187.342C70.6294 186.495 69.4807 186.019 68.283 186.019Z" fill="#0A3A68"/>
</svg>
